<mxfile host="app.diagrams.net" modified="2023-11-03T14:52:04.198Z" agent="Mozilla/5.0 (Macintosh; Intel Mac OS X 10_15_7) AppleWebKit/537.36 (KHTML, like Gecko) Chrome/117.0.0.0 Safari/537.36" etag="JIsGnqDSJyH8nkEBYiqy" version="22.0.8" type="github">
  <diagram name="Page-1" id="CUCDwR9WcQfr5-6zFDVO">
    <mxGraphModel dx="2620" dy="1138" grid="1" gridSize="10" guides="1" tooltips="1" connect="1" arrows="1" fold="1" page="1" pageScale="1" pageWidth="827" pageHeight="1169" math="0" shadow="0">
      <root>
        <mxCell id="0" />
        <mxCell id="1" parent="0" />
        <mxCell id="jrZ9ld4mW0Ml7d3sND3q-14" style="edgeStyle=orthogonalEdgeStyle;rounded=0;orthogonalLoop=1;jettySize=auto;html=1;exitX=1;exitY=0.5;exitDx=0;exitDy=0;entryX=0;entryY=0.5;entryDx=0;entryDy=0;strokeWidth=4;fontSize=17;" parent="1" source="jrZ9ld4mW0Ml7d3sND3q-3" target="jrZ9ld4mW0Ml7d3sND3q-6" edge="1">
          <mxGeometry relative="1" as="geometry" />
        </mxCell>
        <mxCell id="jrZ9ld4mW0Ml7d3sND3q-3" value="" style="shape=sumEllipse;perimeter=ellipsePerimeter;whiteSpace=wrap;html=1;backgroundOutline=1;strokeWidth=2;fontSize=17;" parent="1" vertex="1">
          <mxGeometry x="12" y="410" width="80" height="80" as="geometry" />
        </mxCell>
        <mxCell id="jrZ9ld4mW0Ml7d3sND3q-17" style="edgeStyle=orthogonalEdgeStyle;rounded=0;orthogonalLoop=1;jettySize=auto;html=1;exitX=1;exitY=0.5;exitDx=0;exitDy=0;entryX=0.5;entryY=1;entryDx=0;entryDy=0;strokeWidth=4;fontSize=17;" parent="1" source="jrZ9ld4mW0Ml7d3sND3q-4" target="jrZ9ld4mW0Ml7d3sND3q-3" edge="1">
          <mxGeometry relative="1" as="geometry" />
        </mxCell>
        <mxCell id="jrZ9ld4mW0Ml7d3sND3q-4" value="AMP" style="triangle;whiteSpace=wrap;html=1;rotation=-90;strokeWidth=2;fontSize=17;align=left;" parent="1" vertex="1">
          <mxGeometry x="22" y="590" width="60" height="80" as="geometry" />
        </mxCell>
        <mxCell id="jrZ9ld4mW0Ml7d3sND3q-16" style="edgeStyle=orthogonalEdgeStyle;rounded=0;orthogonalLoop=1;jettySize=auto;html=1;exitX=0.5;exitY=0;exitDx=0;exitDy=0;entryX=0;entryY=0.5;entryDx=0;entryDy=0;strokeWidth=4;fontSize=17;" parent="1" source="jrZ9ld4mW0Ml7d3sND3q-5" target="jrZ9ld4mW0Ml7d3sND3q-4" edge="1">
          <mxGeometry relative="1" as="geometry" />
        </mxCell>
        <mxCell id="jrZ9ld4mW0Ml7d3sND3q-5" value="&lt;font style=&quot;font-size: 17px;&quot;&gt;OSC&lt;/font&gt;" style="ellipse;whiteSpace=wrap;html=1;aspect=fixed;strokeWidth=2;fontSize=17;" parent="1" vertex="1">
          <mxGeometry x="12" y="725" width="80" height="80" as="geometry" />
        </mxCell>
        <mxCell id="jrZ9ld4mW0Ml7d3sND3q-15" style="edgeStyle=orthogonalEdgeStyle;rounded=0;orthogonalLoop=1;jettySize=auto;html=1;exitX=1;exitY=0.5;exitDx=0;exitDy=0;entryX=0.463;entryY=0.9;entryDx=0;entryDy=0;strokeWidth=4;fontSize=17;entryPerimeter=0;" parent="1" source="jrZ9ld4mW0Ml7d3sND3q-6" target="jrZ9ld4mW0Ml7d3sND3q-8" edge="1">
          <mxGeometry relative="1" as="geometry">
            <mxPoint x="450" y="450" as="targetPoint" />
          </mxGeometry>
        </mxCell>
        <mxCell id="jrZ9ld4mW0Ml7d3sND3q-6" value="AMP" style="triangle;whiteSpace=wrap;html=1;strokeWidth=2;fontSize=17;align=left;" parent="1" vertex="1">
          <mxGeometry x="222" y="410" width="60" height="80" as="geometry" />
        </mxCell>
        <mxCell id="jrZ9ld4mW0Ml7d3sND3q-8" value="" style="verticalLabelPosition=bottom;shadow=0;dashed=0;align=center;html=1;verticalAlign=top;shape=mxgraph.electrical.radio.aerial_-_antenna_1;strokeWidth=2;fontSize=17;" parent="1" vertex="1">
          <mxGeometry x="375" y="295" width="80" height="100" as="geometry" />
        </mxCell>
        <mxCell id="q6qFZlMHjFmC30Wu0yNL-12" style="edgeStyle=orthogonalEdgeStyle;rounded=0;orthogonalLoop=1;jettySize=auto;html=1;exitX=0.5;exitY=1;exitDx=0;exitDy=0;entryX=0;entryY=0.5;entryDx=0;entryDy=0;strokeWidth=4;fontSize=17;" parent="1" source="jrZ9ld4mW0Ml7d3sND3q-19" target="jrZ9ld4mW0Ml7d3sND3q-3" edge="1">
          <mxGeometry relative="1" as="geometry">
            <mxPoint x="-392.9999999999998" y="450" as="targetPoint" />
          </mxGeometry>
        </mxCell>
        <mxCell id="jrZ9ld4mW0Ml7d3sND3q-19" value="&lt;font style=&quot;font-size: 17px;&quot;&gt;DAC&lt;/font&gt;" style="shape=offPageConnector;whiteSpace=wrap;html=1;rotation=-90;strokeWidth=2;horizontal=1;verticalAlign=middle;fontSize=17;" parent="1" vertex="1">
          <mxGeometry x="-370" y="410" width="80" height="80" as="geometry" />
        </mxCell>
        <mxCell id="jrZ9ld4mW0Ml7d3sND3q-22" value="&lt;font style=&quot;font-size: 17px;&quot;&gt;f&lt;sub style=&quot;font-size: 17px;&quot;&gt;LO&lt;/sub&gt; = 2.4GHz&lt;/font&gt;" style="text;html=1;align=left;verticalAlign=middle;resizable=0;points=[];autosize=1;strokeColor=none;fillColor=none;fontSize=17;" parent="1" vertex="1">
          <mxGeometry x="102" y="745" width="130" height="40" as="geometry" />
        </mxCell>
        <mxCell id="q6qFZlMHjFmC30Wu0yNL-1" value="&lt;div style=&quot;text-align: left; font-size: 17px;&quot;&gt;&lt;font style=&quot;font-size: 17px;&quot;&gt;BW = 1.67 M&lt;/font&gt;&lt;span style=&quot;background-color: initial; font-size: 17px;&quot;&gt;&lt;font style=&quot;font-size: 17px;&quot;&gt;Hz&lt;/font&gt;&lt;/span&gt;&lt;/div&gt;&lt;div style=&quot;text-align: left; font-size: 17px;&quot;&gt;&lt;span style=&quot;background-color: initial; font-size: 17px;&quot;&gt;&lt;font style=&quot;font-size: 17px;&quot;&gt;IF freq = 25 MHz&lt;/font&gt;&lt;/span&gt;&lt;/div&gt;&lt;div style=&quot;text-align: left; font-size: 17px;&quot;&gt;&lt;span style=&quot;background-color: initial; font-size: 17px;&quot;&gt;&lt;font style=&quot;font-size: 17px;&quot;&gt;Power =&amp;nbsp; 5 dBm&lt;/font&gt;&lt;/span&gt;&lt;/div&gt;" style="text;html=1;align=center;verticalAlign=middle;resizable=0;points=[];autosize=1;strokeColor=none;fillColor=none;fontSize=17;" parent="1" vertex="1">
          <mxGeometry x="-290" y="460" width="150" height="70" as="geometry" />
        </mxCell>
        <mxCell id="q6qFZlMHjFmC30Wu0yNL-4" value="&lt;div style=&quot;text-align: left; font-size: 17px;&quot;&gt;&lt;span style=&quot;background-color: initial; font-size: 17px;&quot;&gt;Freq = 2.375 GHz&lt;/span&gt;&lt;/div&gt;&lt;div style=&quot;text-align: left; font-size: 17px;&quot;&gt;&lt;span style=&quot;background-color: initial; font-size: 17px;&quot;&gt;Freq = 2.425 GHZ&lt;/span&gt;&lt;/div&gt;&lt;div style=&quot;text-align: left; font-size: 17px;&quot;&gt;&lt;span style=&quot;background-color: initial; font-size: 17px;&quot;&gt;&lt;font style=&quot;font-size: 17px;&quot;&gt;Power =&amp;nbsp; -5 dBm&lt;/font&gt;&lt;/span&gt;&lt;/div&gt;" style="text;html=1;align=center;verticalAlign=middle;resizable=0;points=[];autosize=1;strokeColor=none;fillColor=none;fontSize=17;" parent="1" vertex="1">
          <mxGeometry x="69" y="465" width="160" height="70" as="geometry" />
        </mxCell>
        <mxCell id="q6qFZlMHjFmC30Wu0yNL-5" value="HMC636&lt;br style=&quot;font-size: 17px;&quot;&gt;G = 10 dB&lt;br style=&quot;font-size: 17px;&quot;&gt;NF = 2 dB" style="text;html=1;align=center;verticalAlign=middle;resizable=0;points=[];autosize=1;strokeColor=none;fillColor=none;fontSize=17;" parent="1" vertex="1">
          <mxGeometry x="92" y="595" width="100" height="70" as="geometry" />
        </mxCell>
        <mxCell id="q6qFZlMHjFmC30Wu0yNL-6" value="MAX2615&lt;br style=&quot;font-size: 17px;&quot;&gt;G = 18.6 dB&lt;br style=&quot;font-size: 17px;&quot;&gt;NF = 2 dB" style="text;html=1;align=center;verticalAlign=middle;resizable=0;points=[];autosize=1;strokeColor=none;fillColor=none;fontSize=17;" parent="1" vertex="1">
          <mxGeometry x="180" y="335" width="110" height="70" as="geometry" />
        </mxCell>
        <mxCell id="q6qFZlMHjFmC30Wu0yNL-8" value="&lt;font style=&quot;font-size: 17px;&quot;&gt;VERT2450&lt;br style=&quot;font-size: 17px;&quot;&gt;G = 3dBi&lt;br&gt;Power=16.6 dbm&lt;br&gt;&lt;/font&gt;" style="text;html=1;align=center;verticalAlign=middle;resizable=0;points=[];autosize=1;strokeColor=none;fillColor=none;fontSize=17;" parent="1" vertex="1">
          <mxGeometry x="338" y="225" width="150" height="70" as="geometry" />
        </mxCell>
        <mxCell id="q6qFZlMHjFmC30Wu0yNL-9" value="&lt;font style=&quot;font-size: 17px;&quot;&gt;HMC213&lt;br style=&quot;font-size: 17px;&quot;&gt;L = 10 dB&lt;br style=&quot;font-size: 17px;&quot;&gt;&lt;/font&gt;" style="text;html=1;align=center;verticalAlign=middle;resizable=0;points=[];autosize=1;strokeColor=none;fillColor=none;fontSize=17;" parent="1" vertex="1">
          <mxGeometry x="-8" y="350" width="100" height="50" as="geometry" />
        </mxCell>
        <mxCell id="q6qFZlMHjFmC30Wu0yNL-15" value="&lt;div style=&quot;text-align: left; font-size: 17px;&quot;&gt;&lt;span style=&quot;background-color: initial; font-size: 17px;&quot;&gt;Power =&amp;nbsp; 5 dBm&lt;/span&gt;&lt;br style=&quot;font-size: 17px;&quot;&gt;&lt;/div&gt;" style="text;html=1;align=center;verticalAlign=middle;resizable=0;points=[];autosize=1;strokeColor=none;fillColor=none;fontSize=17;" parent="1" vertex="1">
          <mxGeometry x="-118" y="480" width="140" height="30" as="geometry" />
        </mxCell>
        <mxCell id="q6qFZlMHjFmC30Wu0yNL-17" value="&lt;div style=&quot;text-align: left; font-size: 17px;&quot;&gt;&lt;span style=&quot;background-color: initial; font-size: 17px;&quot;&gt;Freq = 2.375 GHz&lt;/span&gt;&lt;/div&gt;&lt;div style=&quot;text-align: left; font-size: 17px;&quot;&gt;&lt;span style=&quot;background-color: initial; font-size: 17px;&quot;&gt;Freq = 2.425 GHZ&lt;/span&gt;&lt;/div&gt;&lt;div style=&quot;text-align: left; font-size: 17px;&quot;&gt;&lt;span style=&quot;background-color: initial; font-size: 17px;&quot;&gt;&lt;font style=&quot;font-size: 17px;&quot;&gt;Power =&amp;nbsp; 13.6 dBm&lt;/font&gt;&lt;/span&gt;&lt;/div&gt;" style="text;html=1;align=center;verticalAlign=middle;resizable=0;points=[];autosize=1;strokeColor=none;fillColor=none;fontSize=17;" parent="1" vertex="1">
          <mxGeometry x="272" y="465" width="170" height="70" as="geometry" />
        </mxCell>
        <mxCell id="q6qFZlMHjFmC30Wu0yNL-18" value="&lt;div style=&quot;text-align: left; font-size: 17px;&quot;&gt;&lt;span style=&quot;background-color: initial; font-size: 17px;&quot;&gt;Freq = 2.4 GHz&lt;/span&gt;&lt;/div&gt;&lt;div style=&quot;text-align: left; font-size: 17px;&quot;&gt;&lt;span style=&quot;background-color: initial; font-size: 17px;&quot;&gt;Power =&amp;nbsp; 10 dBm&lt;/span&gt;&lt;br style=&quot;font-size: 17px;&quot;&gt;&lt;/div&gt;" style="text;html=1;align=center;verticalAlign=middle;resizable=0;points=[];autosize=1;strokeColor=none;fillColor=none;fontSize=17;" parent="1" vertex="1">
          <mxGeometry x="-94" y="536" width="150" height="50" as="geometry" />
        </mxCell>
      </root>
    </mxGraphModel>
  </diagram>
</mxfile>
